<svg width="436" height="98" viewBox="0 0 436 98" fill="none" xmlns="http://www.w3.org/2000/svg">
<path d="M429.894 72.1481C425.954 72.1481 422.829 71.1238 420.517 69.0751C418.258 66.9739 417.129 63.6383 417.129 59.0682V33.3809L416.971 32.9082L419.099 23.8467H427.451V57.4135C427.451 59.0944 427.845 60.3289 428.633 61.1168C429.474 61.8522 430.524 62.22 431.785 62.22C432.625 62.22 433.387 62.1674 434.07 62.0624C434.753 61.9048 435.357 61.7472 435.882 61.5896V71.2026C435.042 71.5178 434.149 71.7542 433.203 71.9118C432.258 72.0694 431.155 72.1481 429.894 72.1481ZM411.141 42.4424V32.9082H435.882V42.4424H411.141Z" fill="white"/>
<path d="M370.338 71.4378V21.3096L380.66 17.7783V71.4378H370.338ZM395.158 71.4378V48.0356C395.158 45.6718 394.686 44.0959 393.74 43.3079C392.847 42.52 391.691 42.126 390.273 42.126C388.96 42.126 387.62 42.3886 386.255 42.9139C384.889 43.3867 383.602 44.0959 382.394 45.0414C381.238 45.9344 380.24 46.9587 379.399 48.1144L376.878 40.1561C378.244 38.5802 379.793 37.1881 381.527 35.98C383.313 34.7718 385.204 33.8262 387.2 33.1433C389.196 32.4079 391.297 32.0402 393.504 32.0402C396.13 32.0402 398.231 32.4867 399.807 33.3797C401.436 34.2727 402.644 35.4809 403.432 37.0043C404.272 38.5277 404.824 40.2612 405.087 42.2048C405.349 44.0959 405.481 46.0657 405.481 48.1144V71.4378H395.158Z" fill="white"/>
<path d="M342.116 87.198C340.015 87.198 337.914 86.8828 335.812 86.2524C333.764 85.6221 331.873 84.5977 330.139 83.1794C328.406 81.8136 326.935 79.9488 325.727 77.585L325.096 76.3242L332.739 72.3845C334.053 74.4857 335.418 76.0091 336.837 76.9546C338.255 77.9527 340.041 78.4517 342.195 78.4517C344.874 78.4517 347.028 77.6112 348.656 75.9303C350.337 74.2493 351.177 71.6753 351.177 68.2084V58.5165H351.887V41.9696H351.177L353.699 32.9081H361.5V66.1597C361.5 70.6773 360.685 74.512 359.057 77.6638C357.481 80.8156 355.248 83.1794 352.359 84.7553C349.47 86.3838 346.056 87.198 342.116 87.198ZM340.776 69.3115C337.309 69.3115 334.236 68.5235 331.557 66.9476C328.878 65.3717 326.777 63.1917 325.254 60.4076C323.73 57.6235 322.969 54.3929 322.969 50.7158C322.969 47.0387 323.704 43.8081 325.175 41.024C326.698 38.1874 328.8 35.9811 331.479 34.4052C334.158 32.8293 337.231 32.0414 340.698 32.0414C343.955 32.0414 346.817 32.8293 349.286 34.4052C351.755 35.9286 353.673 38.1086 355.038 40.9452C356.404 43.7293 357.087 46.9862 357.087 50.7158C357.087 54.5505 356.404 57.8599 355.038 60.644C353.725 63.3756 351.834 65.5031 349.365 67.0264C346.949 68.5498 344.086 69.3115 340.776 69.3115ZM342.589 60.25C345.268 60.25 347.448 59.357 349.129 57.571C350.81 55.785 351.65 53.4737 351.65 50.637C351.65 47.8004 350.81 45.4891 349.129 43.7031C347.448 41.917 345.268 41.024 342.589 41.024C339.91 41.024 337.703 41.917 335.97 43.7031C334.289 45.4891 333.449 47.8267 333.449 50.7158C333.449 53.4999 334.289 55.785 335.97 57.571C337.703 59.357 339.91 60.25 342.589 60.25Z" fill="white"/>
<path d="M316.031 71.439H305.709V32.9081H316.031V71.439ZM304.605 20.9313C304.605 19.0402 305.157 17.5168 306.26 16.3612C307.416 15.153 308.939 14.5489 310.83 14.5489C312.721 14.5489 314.218 15.153 315.322 16.3612C316.477 17.5168 317.055 19.0402 317.055 20.9313C317.055 22.7173 316.477 24.1881 315.322 25.3438C314.218 26.4995 312.721 27.0773 310.83 27.0773C308.939 27.0773 307.416 26.4995 306.26 25.3438C305.157 24.1881 304.605 22.7173 304.605 20.9313Z" fill="white"/>
<path d="M283.934 72.4647C280.992 72.4647 278.182 71.8606 275.503 70.6524C272.876 69.4442 270.539 67.343 268.49 64.3488L274.794 58.8331C276.475 60.7242 278.077 62.09 279.6 62.9304C281.176 63.7184 282.936 64.1124 284.88 64.1124C286.193 64.1124 287.243 63.7972 288.031 63.1668C288.819 62.5365 289.213 61.7485 289.213 60.803C289.213 60.1726 289.003 59.6211 288.583 59.1483C288.163 58.623 287.375 58.1239 286.219 57.6512C285.116 57.1784 283.488 56.6794 281.334 56.1541C277.342 55.1035 274.347 53.6852 272.351 51.8991C270.355 50.0606 269.357 47.4866 269.357 44.1772C269.357 41.9184 269.935 39.8697 271.09 38.0312C272.246 36.1401 273.901 34.643 276.055 33.5399C278.261 32.4367 280.861 31.8852 283.855 31.8852C287.375 31.8852 290.369 32.5681 292.838 33.9338C295.359 35.2996 297.382 36.9543 298.905 38.8979L292.208 44.4924C291.209 43.4418 289.923 42.5225 288.347 41.7346C286.771 40.9466 284.932 40.5526 282.831 40.5526C281.675 40.5526 280.651 40.8153 279.758 41.3406C278.865 41.8659 278.418 42.6276 278.418 43.6256C278.418 44.5712 278.891 45.3591 279.837 45.9895C280.835 46.6199 282.726 47.2765 285.51 47.9594C290.238 49.0625 293.626 50.5596 295.675 52.4507C297.723 54.3418 298.748 56.8632 298.748 60.015C298.748 62.5365 298.091 64.7427 296.778 66.6338C295.464 68.4724 293.678 69.9169 291.42 70.9675C289.213 71.9656 286.718 72.4647 283.934 72.4647Z" fill="white"/>
<path d="M245.466 72.2269C241.631 72.2269 238.269 71.4127 235.38 69.7843C232.491 68.1033 230.258 65.7657 228.682 62.7715C227.106 59.7773 226.318 56.2578 226.318 52.2129C226.318 48.2206 227.106 44.7274 228.682 41.7332C230.258 38.6864 232.491 36.3226 235.38 34.6416C238.269 32.9081 241.631 32.0414 245.466 32.0414C249.353 32.0414 252.715 32.9081 255.551 34.6416C258.441 36.3751 260.673 38.7652 262.249 41.812C263.825 44.8062 264.613 48.2469 264.613 52.1341C264.613 52.712 264.587 53.2898 264.534 53.8676C264.534 54.3929 264.481 54.8394 264.376 55.2072H234.749V47.4852H256.576L255 51.1886C255 47.9317 254.212 45.279 252.636 43.2303C251.113 41.1816 248.722 40.1573 245.466 40.1573C242.629 40.1573 240.344 41.0503 238.61 42.8363C236.877 44.5698 236.01 46.9074 236.01 49.8491V54.0252C236.01 57.1245 236.877 59.5671 238.61 61.3532C240.396 63.0867 242.813 63.9534 245.86 63.9534C248.539 63.9534 250.64 63.4018 252.163 62.2987C253.687 61.1956 255 59.8298 256.103 58.2014L263.273 62.2987C261.54 65.503 259.176 67.972 256.182 69.7055C253.24 71.3864 249.668 72.2269 245.466 72.2269Z" fill="white"/>
<path d="M209.929 32.9081L212.529 43.5455V71.4389H202.207V32.9081H209.929ZM210.402 48.8247L208.511 47.958V40.0785L209.22 39.2117C209.798 38.2662 210.664 37.2419 211.82 36.1387C213.028 35.0356 214.394 34.0901 215.917 33.3021C217.493 32.4616 219.122 32.0414 220.803 32.0414C221.643 32.0414 222.405 32.0939 223.088 32.199C223.771 32.304 224.296 32.4879 224.664 32.7505V42.1272H222.142C218.728 42.1272 216.101 42.6787 214.263 43.7819C212.424 44.8325 211.137 46.5134 210.402 48.8247Z" fill="white"/>
<path d="M175.925 72.3845C171.933 72.3845 168.413 71.544 165.366 69.863C162.372 68.1296 160.034 65.7657 158.353 62.7715C156.673 59.7247 155.832 56.2052 155.832 52.2129C155.832 48.2206 156.673 44.7274 158.353 41.7332C160.034 38.6864 162.372 36.3226 165.366 34.6416C168.413 32.9081 171.933 32.0414 175.925 32.0414C179.917 32.0414 183.41 32.9081 186.405 34.6416C189.451 36.3226 191.815 38.6864 193.496 41.7332C195.177 44.7274 196.018 48.2206 196.018 52.2129C196.018 56.2052 195.177 59.7247 193.496 62.7715C191.815 65.7657 189.451 68.1296 186.405 69.863C183.41 71.544 179.917 72.3845 175.925 72.3845ZM175.925 62.3775C178.761 62.3775 181.073 61.432 182.859 59.5409C184.645 57.6498 185.538 55.2071 185.538 52.2129C185.538 49.1662 184.645 46.6973 182.859 44.8062C181.073 42.9151 178.761 41.9696 175.925 41.9696C173.088 41.9696 170.777 42.9151 168.991 44.8062C167.257 46.6447 166.391 49.0874 166.391 52.1341C166.391 55.1809 167.257 57.6498 168.991 59.5409C170.777 61.432 173.088 62.3775 175.925 62.3775Z" fill="white"/>
<path d="M144.648 72.1481C140.708 72.1481 137.582 71.1238 135.271 69.0751C133.012 66.9739 131.883 63.6383 131.883 59.0682V33.3809L131.725 32.9082L133.853 23.8467H142.205V57.4135C142.205 59.0944 142.599 60.3289 143.387 61.1168C144.228 61.8522 145.278 62.22 146.539 62.22C147.379 62.22 148.141 62.1674 148.824 62.0624C149.507 61.9048 150.111 61.7472 150.636 61.5896V71.2026C149.796 71.5178 148.903 71.7542 147.957 71.9118C147.012 72.0694 145.908 72.1481 144.648 72.1481ZM125.895 42.4424V32.9082H150.636V42.4424H125.895Z" fill="white"/>
<path d="M103.924 72.7007C100.93 72.7007 98.0929 72.2542 95.4139 71.3612C92.7348 70.4681 90.3184 69.0761 88.1647 67.185C86.0635 65.2939 84.2775 62.825 82.8066 59.7783L91.0013 54.8142C92.6298 57.5983 94.5471 59.6732 96.7534 61.039C98.9596 62.4048 101.507 63.0877 104.397 63.0877C107.023 63.0877 109.019 62.5361 110.385 61.433C111.751 60.2773 112.434 58.7539 112.434 56.8628C112.434 55.6547 112.118 54.6303 111.488 53.7898C110.91 52.8968 109.86 52.0563 108.336 51.2684C106.813 50.4804 104.607 49.7713 101.717 49.1409C97.41 48.0903 94.0218 46.7771 91.5529 45.2012C89.1365 43.6253 87.4293 41.7867 86.4312 39.6855C85.4331 37.5318 84.9341 35.1679 84.9341 32.5939C84.9341 29.4947 85.6695 26.7894 87.1404 24.478C88.6637 22.1142 90.8175 20.2494 93.6016 18.8836C96.3857 17.5178 99.6951 16.8349 103.53 16.8349C107.942 16.8349 111.646 17.7017 114.64 19.4352C117.634 21.1161 120.077 23.4012 121.968 26.2903L113.773 31.8848C112.302 29.9937 110.621 28.6542 108.73 27.8662C106.892 27.0258 105.001 26.6055 103.057 26.6055C100.536 26.6055 98.5919 27.1045 97.2262 28.1026C95.9129 29.1007 95.2563 30.4927 95.2563 32.2788C95.2563 33.8547 95.9129 35.2204 97.2262 36.3761C98.5919 37.4792 101.218 38.5036 105.106 39.4491C109.518 40.4997 113.038 41.7867 115.664 43.3101C118.291 44.8335 120.156 46.672 121.259 48.8257C122.414 50.9795 122.992 53.5797 122.992 56.6265C122.992 59.6732 122.204 62.4048 120.628 64.8212C119.105 67.2375 116.899 69.1549 114.01 70.5732C111.173 71.9915 107.811 72.7007 103.924 72.7007Z" fill="white"/>
<path d="M42.16 77.1124C42.16 80.5168 39.9986 83.5456 36.7792 84.6526L6.53592 95.0518C3.57786 96.069 0.498047 93.8712 0.498047 90.7431L0.498048 20.5067C0.498048 17.1024 2.65949 14.0735 5.87886 12.9665L36.1221 2.5673C39.0802 1.55016 42.16 3.74795 42.16 6.876V77.1124Z" fill="url(#paint0_linear_25_111)" fill-opacity="0.33"/>
<path d="M49.7586 67.1804C49.7586 68.1531 49.1411 69.0185 48.2212 69.3347L17.2045 79.9999C15.7254 80.5085 14.1855 79.4096 14.1855 77.8456V72.3997C14.1855 71.4271 14.8031 70.5617 15.7229 70.2454L46.7397 59.5802C48.2187 59.0716 49.7586 60.1705 49.7586 61.7346V67.1804Z" fill="white"/>
<path d="M42.1607 39.2643C42.1607 40.2369 41.5432 41.1023 40.6235 41.4186L17.2046 49.4722C15.7255 49.9809 14.1855 48.882 14.1855 47.3179V41.8721C14.1855 40.8995 14.8031 40.0341 15.7228 39.7178L39.1417 31.6642C40.6208 31.1555 42.1607 32.2544 42.1607 33.8185V39.2643Z" fill="white"/>
<path d="M59.9459 48.6982C59.9459 49.6709 59.3284 50.5363 58.4086 50.8526L34.9897 58.9062C33.5107 59.4148 31.9707 58.316 31.9707 56.7519V51.3061C31.9707 50.3335 32.5882 49.4681 33.508 49.1518L56.9269 41.0982C58.4059 40.5895 59.9459 41.6884 59.9459 43.2525V48.6982Z" fill="white"/>
<path d="M59.9442 17.1016C59.9442 18.0743 59.3266 18.9397 58.4068 19.256L27.39 29.9212C25.911 30.4297 24.3711 29.3308 24.3711 27.7668V22.321C24.3711 21.3483 24.9886 20.4829 25.9085 20.1666L56.9252 9.50144C58.4043 8.99288 59.9442 10.0918 59.9442 11.6558V17.1016Z" fill="white"/>
<defs>
<linearGradient id="paint0_linear_25_111" x1="0.498047" y1="97.128" x2="56.6401" y2="18.4827" gradientUnits="userSpaceOnUse">
<stop stop-color="white"/>
<stop offset="1" stop-color="white" stop-opacity="0"/>
</linearGradient>
</defs>
</svg>
